<svg width="32" height="32" viewBox="0 0 32 32" xmlns="http://www.w3.org/2000/svg">
  <svg x="2.5" y="2.5" width="27" height="27" viewBox="8 8 80 80" style="color:oklch(66% 0.17 29)">
    <defs>
      <linearGradient id="fav-base" x1="0" y1="0" x2="0" y2="1">
        <stop offset="0" stop-color="currentColor" stop-opacity="0.5"/>
        <stop offset="1" stop-color="currentColor" stop-opacity="0.24"/>
      </linearGradient>
      <clipPath id="fav-mark" clip-rule="evenodd">
        <path d="M26 26 H50 C62 26 70 32 70 42 C70 48 67 52 61 55 C69 57 74 62 74 70 C74 80 65 87 51 87 H26 Z M39 34 V51 H49 C56 51 60 48 60 42 C60 37 56 34 50 34 Z M39 60 V79 H50 C58 79 63 75 63 69 C63 64 58 60 51 60 Z"/>
        <path d="M40 28 C48 14 66 8 84 10 C76 26 58 32 40 30 Z M46 27 C56 19 70 15 80 13 C68 18 56 23 46 27 Z"/>
      </clipPath>
      <clipPath id="fav-stem"><rect x="20" y="24" width="19.2" height="64"/></clipPath>
      <clipPath id="fav-upper"><rect x="39.2" y="24" width="42" height="32"/></clipPath>
      <clipPath id="fav-lower"><rect x="39.2" y="55.5" width="42" height="33"/></clipPath>
      <clipPath id="fav-leaf"><path d="M40 28 C48 14 66 8 84 10 C76 26 58 32 40 30 Z"/></clipPath>
    </defs>
    <g clip-path="url(#fav-mark)">
      <rect x="8" y="8" width="80" height="80" fill="url(#fav-base)"/>
      <g fill="none" stroke="currentColor" stroke-width="0.8" stroke-linecap="round">
        <g clip-path="url(#fav-stem)"><path d="M27 25 V88 M29.1 25 V88 M31.2 25 V88 M33.3 25 V88 M35.4 25 V88 M37.5 25 V88"/><g stroke-width="0.36" stroke-opacity="0.65"><g transform="rotate(38 32 57)"><path d="M0 18 H72 M0 21 H72 M0 24 H72 M0 27 H72 M0 30 H72 M0 33 H72 M0 36 H72 M0 39 H72 M0 42 H72 M0 45 H72 M0 48 H72 M0 51 H72 M0 54 H72 M0 57 H72 M0 60 H72 M0 63 H72 M0 66 H72 M0 69 H72 M0 72 H72 M0 75 H72 M0 78 H72 M0 81 H72 M0 84 H72 M0 87 H72 M0 90 H72 M0 93 H72 M0 96 H72"/></g><g transform="rotate(-38 32 57)"><path d="M0 18 H72 M0 21 H72 M0 24 H72 M0 27 H72 M0 30 H72 M0 33 H72 M0 36 H72 M0 39 H72 M0 42 H72 M0 45 H72 M0 48 H72 M0 51 H72 M0 54 H72 M0 57 H72 M0 60 H72 M0 63 H72 M0 66 H72 M0 69 H72 M0 72 H72 M0 75 H72 M0 78 H72 M0 81 H72 M0 84 H72 M0 87 H72 M0 90 H72 M0 93 H72 M0 96 H72"/></g></g></g>
        <g clip-path="url(#fav-upper)"><path d="M38.5 39.5 A3 3 0 0 1 38.5 45.5 M38.5 37.4 A5.1 5.1 0 0 1 38.5 47.6 M38.5 35.3 A7.2 7.2 0 0 1 38.5 49.7 M38.5 33.2 A9.3 9.3 0 0 1 38.5 51.8 M38.5 31.1 A11.4 11.4 0 0 1 38.5 53.9 M38.5 29 A13.5 13.5 0 0 1 38.5 56 M38.5 26.9 A15.6 15.6 0 0 1 38.5 58.1 M38.5 24.8 A17.7 17.7 0 0 1 38.5 60.2 M38.5 22.7 A19.8 19.8 0 0 1 38.5 62.3 M38.5 20.6 A21.9 21.9 0 0 1 38.5 64.4 M38.5 18.5 A24 24 0 0 1 38.5 66.5 M38.5 16.4 A26.1 26.1 0 0 1 38.5 68.6 M38.5 14.3 A28.2 28.2 0 0 1 38.5 70.7 M38.5 12.2 A30.3 30.3 0 0 1 38.5 72.8 M38.5 10.1 A32.4 32.4 0 0 1 38.5 74.9"/></g>
        <g clip-path="url(#fav-lower)"><path d="M38.5 66 A3 3 0 0 1 38.5 72 M38.5 63.9 A5.1 5.1 0 0 1 38.5 74.1 M38.5 61.8 A7.2 7.2 0 0 1 38.5 76.2 M38.5 59.7 A9.3 9.3 0 0 1 38.5 78.3 M38.5 57.6 A11.4 11.4 0 0 1 38.5 80.4 M38.5 55.5 A13.5 13.5 0 0 1 38.5 82.5 M38.5 53.4 A15.6 15.6 0 0 1 38.5 84.6 M38.5 51.3 A17.7 17.7 0 0 1 38.5 86.7 M38.5 49.2 A19.8 19.8 0 0 1 38.5 88.8 M38.5 47.1 A21.9 21.9 0 0 1 38.5 90.9 M38.5 45 A24 24 0 0 1 38.5 93 M38.5 42.9 A26.1 26.1 0 0 1 38.5 95.1 M38.5 40.8 A28.2 28.2 0 0 1 38.5 97.2 M38.5 38.7 A30.3 30.3 0 0 1 38.5 99.3 M38.5 36.6 A32.4 32.4 0 0 1 38.5 101.4"/></g>
        <g clip-path="url(#fav-leaf)"><g transform="rotate(-23 60 18)"><path d="M35 -4 H90 M35 -2 H90 M35 0 H90 M35 2 H90 M35 4 H90 M35 6 H90 M35 8 H90 M35 10 H90 M35 12 H90 M35 14 H90 M35 16 H90 M35 18 H90 M35 20 H90 M35 22 H90 M35 24 H90 M35 26 H90 M35 28 H90 M35 30 H90 M35 32 H90 M35 34 H90 M35 36 H90 M35 38 H90 M35 40 H90"/></g></g>
      </g>
    </g>
    <g fill="none" stroke="currentColor" stroke-width="1.4" fill-rule="evenodd">
      <path d="M26 26 H50 C62 26 70 32 70 42 C70 48 67 52 61 55 C69 57 74 62 74 70 C74 80 65 87 51 87 H26 Z M39 34 V51 H49 C56 51 60 48 60 42 C60 37 56 34 50 34 Z M39 60 V79 H50 C58 79 63 75 63 69 C63 64 58 60 51 60 Z"/>
      <path d="M40 28 C48 14 66 8 84 10 C76 26 58 32 40 30 Z M46 27 C56 19 70 15 80 13 C68 18 56 23 46 27 Z"/>
    </g>
  </svg>
</svg>
